<?xml version="1.0" encoding="UTF-8"?>
<svg version="1.1" xmlns="http://www.w3.org/2000/svg" width="500" height="500">
<path d="M0 0 C1.0543071 0.00140488 1.0543071 0.00140488 2.12991333 0.00283813 C51.47980953 0.14480292 101.751286 15.26022356 141.375 45.1875 C142.28016357 45.86377441 142.28016357 45.86377441 143.20361328 46.55371094 C151.71384513 52.94716158 159.70479579 59.81136113 167.375 67.1875 C167.91543945 67.70602539 168.45587891 68.22455078 169.01269531 68.75878906 C176.34861985 75.83925483 183.10371305 83.1308737 189.375 91.1875 C190.16261719 92.15816406 190.95023437 93.12882812 191.76171875 94.12890625 C197.4007029 101.20198056 202.21697955 108.55606392 206.79638672 116.35961914 C207.2348291 117.10203857 207.67327148 117.84445801 208.125 118.609375 C208.51171875 119.27549805 208.8984375 119.94162109 209.296875 120.62792969 C210.30429135 122.35274248 210.30429135 122.35274248 212.375 123.1875 C212.71131868 124.52008344 213.04374553 125.85364867 213.375 127.1875 C214.46737464 129.46188002 215.58576728 131.70089256 216.75 133.9375 C218.77787196 137.8889475 220.7166948 141.80096547 222.1875 146 C222.99803715 149.28319584 222.99803715 149.28319584 225.375 150.1875 C225.71548862 152.18629429 226.04670368 154.18666701 226.375 156.1875 C227.09044262 158.46810764 227.89426695 160.70861268 228.69824219 162.95947266 C248.1298315 217.53787234 245.82230024 278.86653893 223.5 332.125 C222.86771484 333.65543945 222.86771484 333.65543945 222.22265625 335.21679688 C219.22067456 342.40961844 215.96993264 349.4389837 212.23095703 356.28100586 C211.17020877 358.29533183 211.17020877 358.29533183 211.375 361.1875 C210.385 361.5175 209.395 361.8475 208.375 362.1875 C206.78803149 364.8666269 206.78803149 364.8666269 205.375 368.0625 C203.67051361 371.7466763 202.22785268 374.35162858 199.375 377.1875 C199.375 378.1775 199.375 379.1675 199.375 380.1875 C198.53001953 380.496875 198.53001953 380.496875 197.66796875 380.8125 C194.55608051 382.67857268 192.77809379 385.29879953 190.6875 388.1875 C186.8313011 393.36751167 182.78044905 398.23033719 178.3828125 402.96875 C176.28653414 405.22487489 176.28653414 405.22487489 174.2421875 407.96875 C173.62601562 408.7009375 173.00984375 409.433125 172.375 410.1875 C171.715 410.1875 171.055 410.1875 170.375 410.1875 C170.375 411.1775 170.375 412.1675 170.375 413.1875 C168.72134594 414.20887457 167.05123498 415.20362294 165.375 416.1875 C162.26626756 418.94659505 159.68399318 421.72401022 157.375 425.1875 C156.04476734 425.8603323 154.71057796 426.52534162 153.375 427.1875 C150.96830892 428.90977619 148.65061631 430.74865722 146.3125 432.5625 C114.01895789 457.1875 114.01895789 457.1875 105.375 457.1875 C105.045 457.8475 104.715 458.5075 104.375 459.1875 C102.3890056 459.89479816 100.3846815 460.55061325 98.375 461.1875 C97.00874708 461.74032106 95.64840039 462.30787228 94.29296875 462.88671875 C73.34334462 471.74485396 51.88977973 477.12181275 29.375 480.1875 C28.13476074 480.3625708 26.89452148 480.5376416 25.61669922 480.71801758 C21.19386306 481.26288857 16.80818743 481.38315971 12.35546875 481.42578125 C11.50756271 481.4355751 10.65965668 481.44536896 9.78605652 481.45545959 C-9.70439342 481.63397755 -28.48152104 481.27378956 -47.625 477.1875 C-48.66237305 476.96787598 -49.69974609 476.74825195 -50.76855469 476.52197266 C-64.46917681 473.53170712 -77.66839679 469.54885305 -90.625 464.1875 C-91.44452148 463.84847656 -92.26404297 463.50945312 -93.10839844 463.16015625 C-105.19415917 458.0860883 -116.53721392 452.1703218 -127.625 445.1875 C-129.22408203 444.18589844 -129.22408203 444.18589844 -130.85546875 443.1640625 C-138.2824603 438.35663072 -145.16832926 432.93534942 -152.07421875 427.42236328 C-157.36084119 422.52117575 -157.36084119 422.52117575 -163.625 420.1875 C-163.686875 419.589375 -163.74875 418.99125 -163.8125 418.375 C-164.94109074 415.33648647 -166.9012777 414.79379777 -169.625 413.1875 C-169.625 412.1975 -169.625 411.2075 -169.625 410.1875 C-170.615 409.8575 -171.605 409.5275 -172.625 409.1875 C-174.0625 407.796875 -174.0625 407.796875 -175.625 405.9375 C-176.23214844 405.22078125 -176.83929688 404.5040625 -177.46484375 403.765625 C-178.53412109 402.48945312 -178.53412109 402.48945312 -179.625 401.1875 C-180.52110679 400.13974437 -181.4183066 399.09292292 -182.31640625 398.046875 C-186.88444052 392.71085415 -191.39041891 387.37607379 -195.50390625 381.67578125 C-196.68904242 380.03056046 -196.68904242 380.03056046 -198.625 378.1875 C-199.65661608 376.20362292 -200.66023618 374.20473344 -201.625 372.1875 C-202.285 372.1875 -202.945 372.1875 -203.625 372.1875 C-203.79708984 371.32898438 -203.79708984 371.32898438 -203.97265625 370.453125 C-204.68682356 367.97278344 -205.69807872 366.12381303 -207.0625 363.9375 C-207.71025391 362.87789063 -207.71025391 362.87789063 -208.37109375 361.796875 C-208.78488281 361.26578125 -209.19867188 360.7346875 -209.625 360.1875 C-210.285 360.1875 -210.945 360.1875 -211.625 360.1875 C-211.295 359.1975 -210.965 358.2075 -210.625 357.1875 C-211.8989589 355.14916576 -213.23561923 353.14897874 -214.625 351.1875 C-214.955 350.1975 -215.285 349.2075 -215.625 348.1875 C-216.17449183 346.91098821 -216.73887383 345.64085016 -217.3125 344.375 C-219.16118777 340.23584245 -221.00061092 336.09290375 -222.8125 331.9375 C-223.32167969 330.77734375 -223.83085937 329.6171875 -224.35546875 328.421875 C-225.44883301 325.63631929 -226.16550487 323.13269768 -226.625 320.1875 C-227.285 320.1875 -227.945 320.1875 -228.625 320.1875 C-228.73070312 319.42050781 -228.83640625 318.65351563 -228.9453125 317.86328125 C-229.8531423 312.95369593 -231.1936432 308.19137397 -232.5 303.375 C-236.88039328 286.89923762 -239.74972942 270.60428692 -239.828125 253.51953125 C-239.83382507 252.52281906 -239.83952515 251.52610687 -239.84539795 250.49919128 C-239.85479091 248.39571167 -239.86135904 246.29221772 -239.86523438 244.1887207 C-239.87483687 241.05326739 -239.90587276 237.91850033 -239.9375 234.78320312 C-240.00894327 220.69932503 -238.82303446 207.09672832 -236.625 193.1875 C-237.285 193.1875 -237.945 193.1875 -238.625 193.1875 C-238.295 192.1975 -237.965 191.2075 -237.625 190.1875 C-236.965 190.1875 -236.305 190.1875 -235.625 190.1875 C-235.49561035 189.62168213 -235.3662207 189.05586426 -235.23291016 188.47290039 C-229.98033653 165.96348081 -221.21058723 145.15262514 -211.625 124.1875 C-210.965 124.1875 -210.305 124.1875 -209.625 124.1875 C-208.15452664 120.27686776 -208.15452664 120.27686776 -207.625 116.1875 C-206.29614341 114.84970491 -204.96179802 113.51735962 -203.625 112.1875 C-202.21311076 110.23447812 -200.84134982 108.25212546 -199.5 106.25 C-190.8312162 93.55110238 -181.29813197 82.23165626 -170.625 71.1875 C-170.12291016 70.66349609 -169.62082031 70.13949219 -169.10351562 69.59960938 C-153.69917995 53.56480976 -134.29171471 38.07142089 -114.1875 28.3125 C-113.50558594 27.97863281 -112.82367188 27.64476563 -112.12109375 27.30078125 C-109.96080604 26.25205976 -107.79397621 25.21811715 -105.625 24.1875 C-104.58641846 23.68814941 -104.58641846 23.68814941 -103.52685547 23.17871094 C-70.92321181 7.61839955 -36.0670381 -0.06263776 0 0 Z M-33.625 115.1875 C-34.29724609 115.34927734 -34.96949219 115.51105469 -35.66210938 115.67773438 C-47.38552095 118.72232186 -58.14802503 124.25656877 -68.625 130.1875 C-68.13 131.6725 -68.13 131.6725 -67.625 133.1875 C-68.2025 132.960625 -68.78 132.73375 -69.375 132.5 C-71.71895031 131.94462106 -71.71895031 131.94462106 -73.875 133.4375 C-74.4525 134.015 -75.03 134.5925 -75.625 135.1875 C-75.625 136.1775 -75.625 137.1675 -75.625 138.1875 C-76.615 137.8575 -77.605 137.5275 -78.625 137.1875 C-79.28886719 137.79078125 -79.95273438 138.3940625 -80.63671875 139.015625 C-81.51972656 139.81484375 -82.40273437 140.6140625 -83.3125 141.4375 C-84.18261719 142.22640625 -85.05273438 143.0153125 -85.94921875 143.828125 C-87.65197848 145.3295365 -89.39680606 146.78544412 -91.19140625 148.17578125 C-99.59259762 155.12058632 -105.5775906 165.19501652 -111.625 174.1875 C-110.965 174.5175 -110.305 174.8475 -109.625 175.1875 C-109.625 175.8475 -109.625 176.5075 -109.625 177.1875 C-110.223125 177.249375 -110.82125 177.31125 -111.4375 177.375 C-114.65680048 178.57074018 -115.11358353 180.10169138 -116.625 183.1875 C-117.67477315 185.65108054 -118.67363552 188.12618946 -119.63671875 190.625 C-120.2593321 192.23936505 -120.90478549 193.8452814 -121.58203125 195.4375 C-123.22765194 199.40502386 -124.04779963 202.04844654 -122.625 206.1875 C-124.11 206.6825 -124.11 206.6825 -125.625 207.1875 C-131.86646565 235.06570028 -131.86646565 235.06570028 -127.625 262.1875 C-126.965 262.1875 -126.305 262.1875 -125.625 262.1875 C-125.625 262.8475 -125.625 263.5075 -125.625 264.1875 C-126.285 264.5175 -126.945 264.8475 -127.625 265.1875 C-122.47589036 287.0178266 -114.54469049 307.06471503 -99.625 324.1875 C-98.42037109 325.59128906 -98.42037109 325.59128906 -97.19140625 327.0234375 C-94.00154452 330.69374977 -94.00154452 330.69374977 -90.625 334.1875 C-89.965 334.1875 -89.305 334.1875 -88.625 334.1875 C-88.295 335.1775 -87.965 336.1675 -87.625 337.1875 C-85.53699525 339.0343549 -83.45864942 340.74703926 -81.25 342.4375 C-80.29879272 343.17166138 -80.29879272 343.17166138 -79.32836914 343.9206543 C-51.35669997 365.26606612 -16.50410966 374.34484392 18.33984375 369.98046875 C30.85370658 368.16084474 42.93038412 364.555733 54.375 359.1875 C54.045 358.1975 53.715 357.2075 53.375 356.1875 C54.035 356.1875 54.695 356.1875 55.375 356.1875 C55.375 356.8475 55.375 357.5075 55.375 358.1875 C59.41834814 356.96509242 62.88139197 355.58311694 66.375 353.1875 C66.705 352.5275 67.035 351.8675 67.375 351.1875 C68.10332031 350.90003906 68.83164062 350.61257813 69.58203125 350.31640625 C85.73951101 343.78562073 100.1723877 326.38581612 109.375 312.1875 C109.375 311.5275 109.375 310.8675 109.375 310.1875 C110.375 309.1875 111.375 308.1875 112.375 307.1875 C114.89242092 303.85388748 114.89242092 303.85388748 115.0625 299.875 C114.835625 299.318125 114.60875 298.76125 114.375 298.1875 C115.035 298.1875 115.695 298.1875 116.375 298.1875 C116.375 297.5275 116.375 296.8675 116.375 296.1875 C117.035 296.1875 117.695 296.1875 118.375 296.1875 C119.58318664 293.13276337 120.76276392 290.06773936 121.9375 287 C122.27974609 286.13568359 122.62199219 285.27136719 122.97460938 284.38085938 C123.29365234 283.53974609 123.61269531 282.69863281 123.94140625 281.83203125 C124.38915405 280.67731323 124.38915405 280.67731323 124.84594727 279.49926758 C125.47313408 276.75868987 125.09341742 274.88000355 124.375 272.1875 C125.035 272.1875 125.695 272.1875 126.375 272.1875 C127.41714691 267.57242226 127.41714691 267.57242226 126.375 263.1875 C127.035 263.1875 127.695 263.1875 128.375 263.1875 C131.00508615 253.99324924 130.63474354 243.6743237 130.375 234.1875 C130.35824219 233.22972656 130.34148437 232.27195312 130.32421875 231.28515625 C129.43007454 211.43515477 122.81426878 191.07313752 112.375 174.1875 C111.715 174.1875 111.055 174.1875 110.375 174.1875 C110.30152344 173.48882812 110.22804688 172.79015625 110.15234375 172.0703125 C109.17048905 168.42906241 107.25782752 165.95030837 104.9375 163.0625 C104.48793945 162.4948291 104.03837891 161.9271582 103.57519531 161.34228516 C102.18988684 159.61137461 100.78668843 157.89693909 99.375 156.1875 C98.58480469 155.2284375 97.79460937 154.269375 96.98046875 153.28125 C75.58722526 128.58855105 43.67881531 113.80428951 11.375 111.1875 C11.375 111.8475 11.375 112.5075 11.375 113.1875 C10.715 113.1875 10.055 113.1875 9.375 113.1875 C9.375 112.5275 9.375 111.8675 9.375 111.1875 C-5.51794492 110.66053134 -19.15289958 111.57360454 -33.625 115.1875 Z " fill="#5A5C94" transform="translate(249.625,9.8125)"/>
<path d="M0 0 C0.8356398 -0.00970322 1.6712796 -0.01940643 2.53224182 -0.02940369 C5.21685654 -0.05419164 7.90122 -0.06691071 10.5859375 -0.07421875 C11.50178619 -0.07683716 12.41763489 -0.07945557 13.36123657 -0.08215332 C27.58902736 -0.08651333 41.1093175 0.75046326 54.9609375 4.23828125 C56.20875 4.52703125 57.4565625 4.81578125 58.7421875 5.11328125 C87.55361796 12.51438265 113.88937732 27.54131651 135.9609375 47.23828125 C136.80269531 47.95886719 137.64445312 48.67945313 138.51171875 49.421875 C145.80088755 55.70648608 151.69620546 62.83980172 157.6484375 70.36328125 C158.11233887 70.94932129 158.57624023 71.53536133 159.05419922 72.13916016 C161.86933585 75.73487122 164.42657803 79.43674205 166.9609375 83.23828125 C167.6415625 83.89828125 168.3221875 84.55828125 169.0234375 85.23828125 C172.15381515 88.46963882 173.9609375 91.71512004 173.9609375 96.23828125 C174.6209375 96.23828125 175.2809375 96.23828125 175.9609375 96.23828125 C176.22648437 96.87636719 176.49203125 97.51445312 176.765625 98.171875 C177.29542969 99.41130859 177.29542969 99.41130859 177.8359375 100.67578125 C178.18398438 101.49949219 178.53203125 102.32320313 178.890625 103.171875 C179.7854312 105.3957484 179.7854312 105.3957484 181.9609375 106.23828125 C182.2909375 105.57828125 182.6209375 104.91828125 182.9609375 104.23828125 C185.99483284 109.16836118 187.98293962 113.71660449 189.4609375 119.30078125 C189.66887939 120.07317139 189.87682129 120.84556152 190.09106445 121.64135742 C198.72083966 154.79300628 200.97401677 189.5168933 195.2109375 223.30078125 C195.08468994 224.04296906 194.95844238 224.78515686 194.82836914 225.54983521 C191.78069023 243.09961405 186.97411562 259.7413743 180.0859375 276.17578125 C179.45365234 277.7062207 179.45365234 277.7062207 178.80859375 279.26757812 C175.80661206 286.46039969 172.55587014 293.48976495 168.81689453 300.33178711 C167.75614627 302.34611308 167.75614627 302.34611308 167.9609375 305.23828125 C166.9709375 305.56828125 165.9809375 305.89828125 164.9609375 306.23828125 C163.37396899 308.91740815 163.37396899 308.91740815 161.9609375 312.11328125 C160.25645111 315.79745755 158.81379018 318.40240983 155.9609375 321.23828125 C155.9609375 322.22828125 155.9609375 323.21828125 155.9609375 324.23828125 C155.39246094 324.44453125 154.82398438 324.65078125 154.23828125 324.86328125 C150.15288043 327.32993835 147.95094722 331.61969328 145.27734375 335.48828125 C142.83414865 338.38880292 141.44745386 339.03075607 137.9609375 340.23828125 C136.29682363 341.75108648 136.29682363 341.75108648 134.9609375 343.55078125 C132.4584118 346.64516393 129.81699667 349.45941286 126.9609375 352.23828125 C126.4040625 352.83640625 125.8471875 353.43453125 125.2734375 354.05078125 C123.9609375 355.23828125 123.9609375 355.23828125 121.9609375 355.23828125 C121.9609375 355.89828125 121.9609375 356.55828125 121.9609375 357.23828125 C121.3009375 357.23828125 120.6409375 357.23828125 119.9609375 357.23828125 C119.7340625 357.83640625 119.5071875 358.43453125 119.2734375 359.05078125 C117.5549123 361.91498992 115.95325192 362.76831156 112.9609375 364.23828125 C109.97185802 364.59180737 109.97185802 364.59180737 106.5891571 364.56108093 C105.30333237 364.55679077 104.01750763 364.55250061 102.69271851 364.54808044 C101.27520351 364.52802216 99.8576926 364.50767246 98.44018555 364.48706055 C96.94193889 364.47634782 95.44368216 364.46697207 93.94541931 364.45883179 C89.88366041 364.4329794 85.82229644 364.3884357 81.76074576 364.34053397 C77.51406997 364.29362814 73.26727475 364.26391409 69.02046204 364.2323761 C60.98106389 364.17006108 52.94189263 364.09228597 44.90268785 364.00895578 C35.74927538 363.91482911 26.59574352 363.83793801 17.44216096 363.76249444 C-1.38511064 363.60693445 -20.21212336 363.4297304 -39.0390625 363.23828125 C-37.48600535 360.13216696 -34.41635668 359.854576 -31.2890625 358.80078125 C-24.15024668 356.27045295 -17.4855364 353.08102553 -10.7890625 349.55078125 C-9.43216309 348.83740601 -9.43216309 348.83740601 -8.04785156 348.10961914 C-4.15428813 346.02798108 -0.52772459 343.95953651 2.9609375 341.23828125 C1.88199219 341.86734375 0.80304688 342.49640625 -0.30859375 343.14453125 C-23.85337086 356.67155427 -48.16339902 365.27649796 -75.0390625 369.23828125 C-75.74595215 369.34358154 -76.4528418 369.44888184 -77.18115234 369.55737305 C-84.23589838 370.47659812 -91.31023219 370.42210812 -98.4140625 370.42578125 C-99.68378906 370.43802734 -100.95351562 370.45027344 -102.26171875 370.46289062 C-104.08123047 370.46579102 -104.08123047 370.46579102 -105.9375 370.46875 C-107.58758057 370.47491333 -107.58758057 370.47491333 -109.27099609 370.48120117 C-112.0390625 370.23828125 -112.0390625 370.23828125 -115.0390625 368.23828125 C-114.109729 368.22893555 -113.18039551 368.21958984 -112.22290039 368.20996094 C-65.77823055 367.6260033 -21.41506576 359.38309406 15.421875 329.07421875 C17.9609375 327.23828125 17.9609375 327.23828125 20.9609375 327.23828125 C20.39503906 327.73199219 19.82914063 328.22570312 19.24609375 328.734375 C18.51261719 329.37503906 17.77914062 330.01570313 17.0234375 330.67578125 C16.29253906 331.31386719 15.56164062 331.95195312 14.80859375 332.609375 C13.83954397 333.46369584 12.87442575 334.324793 11.9609375 335.23828125 C24.39973311 326.25519735 24.39973311 326.25519735 34.9609375 315.23828125 C34.9609375 313.91828125 34.9609375 312.59828125 34.9609375 311.23828125 C36.25488281 309.62182617 36.25488281 309.62182617 38.0390625 308.03125 C42.09589483 304.20218041 45.38064587 300.01337203 48.7109375 295.55078125 C49.55591797 294.43219727 49.55591797 294.43219727 50.41796875 293.29101562 C51.93763472 291.2773684 53.45058064 289.25891482 54.9609375 287.23828125 C55.48695557 286.54726318 56.01297363 285.85624512 56.55493164 285.14428711 C58.1268587 283.0133556 59.38332211 280.81335819 60.6484375 278.48828125 C61.08542969 277.6890625 61.52242187 276.88984375 61.97265625 276.06640625 C62.29878906 275.463125 62.62492188 274.85984375 62.9609375 274.23828125 C63.6209375 274.23828125 64.2809375 274.23828125 64.9609375 274.23828125 C65.23679687 273.51769531 65.51265625 272.79710937 65.796875 272.0546875 C67.28445472 268.45554329 69.10662272 265.07484279 70.9375 261.640625 C72.22222577 259.06016194 72.22222577 259.06016194 71.9609375 255.23828125 C72.6209375 254.90828125 73.2809375 254.57828125 73.9609375 254.23828125 C74.70592735 252.51123212 74.70592735 252.51123212 75.25 250.421875 C75.46914063 249.65810547 75.68828125 248.89433594 75.9140625 248.10742188 C76.13578125 247.30498047 76.3575 246.50253906 76.5859375 245.67578125 C76.81539062 244.86947266 77.04484375 244.06316406 77.28125 243.23242188 C77.84817904 241.23635922 78.40546393 239.23756206 78.9609375 237.23828125 C78.3009375 237.56828125 77.6409375 237.89828125 76.9609375 238.23828125 C77.44814699 232.87897691 78.52465502 228.35319033 80.328125 223.29296875 C81.07263974 220.87559373 81.20428433 218.75286516 80.9609375 216.23828125 C81.6209375 216.23828125 82.2809375 216.23828125 82.9609375 216.23828125 C82.9609375 213.26828125 82.9609375 210.29828125 82.9609375 207.23828125 C83.6209375 207.23828125 84.2809375 207.23828125 84.9609375 207.23828125 C85.6024957 197.56908263 86.23947117 187.93390572 85.9609375 178.23828125 C85.94417969 177.28566406 85.92742187 176.33304688 85.91015625 175.3515625 C85.1121395 157.54438883 79.77799501 138.79618337 70.74609375 123.38671875 C68.9609375 120.23828125 68.9609375 120.23828125 68.9609375 118.23828125 C68.3009375 118.23828125 67.6409375 118.23828125 66.9609375 118.23828125 C66.60708984 117.19220703 66.60708984 117.19220703 66.24609375 116.125 C64.73000893 112.71956935 62.69173133 109.95602517 60.3984375 107.05078125 C59.72699707 106.19540771 59.72699707 106.19540771 59.04199219 105.32275391 C57.69245695 103.61890607 56.32981438 101.9266136 54.9609375 100.23828125 C54.24550781 99.35269531 53.53007812 98.46710938 52.79296875 97.5546875 C31.44084015 72.51701325 -0.34587608 60.28440311 -32.0390625 55.23828125 C-32.0390625 55.89828125 -32.0390625 56.55828125 -32.0390625 57.23828125 C-32.6990625 57.23828125 -33.3590625 57.23828125 -34.0390625 57.23828125 C-34.0390625 56.57828125 -34.0390625 55.91828125 -34.0390625 55.23828125 C-50.4562017 55.61943197 -50.4562017 55.61943197 -66.7265625 57.67578125 C-67.41355225 57.79800049 -68.10054199 57.92021973 -68.80834961 58.04614258 C-72.19474709 58.70542983 -75.00463585 59.62436642 -78.0390625 61.23828125 C-79.2765625 61.46515625 -80.5140625 61.69203125 -81.7890625 61.92578125 C-91.93625164 64.04608943 -102.69537186 69.15434016 -111.0390625 75.23828125 C-111.0390625 75.89828125 -111.0390625 76.55828125 -111.0390625 77.23828125 C-112.2146875 77.45484375 -112.2146875 77.45484375 -113.4140625 77.67578125 C-116.00327268 78.1162705 -116.00327268 78.1162705 -118.0390625 79.23828125 C-118.5340625 80.72328125 -118.5340625 80.72328125 -119.0390625 82.23828125 C-119.59207031 82.36460937 -120.14507812 82.4909375 -120.71484375 82.62109375 C-124.19314017 83.54474221 -126.55025575 85.81315905 -129.2265625 88.11328125 C-129.80245117 88.60650879 -130.37833984 89.09973633 -130.97167969 89.60791016 C-136.33836243 94.31760078 -140.80150839 99.49061695 -145.0390625 105.23828125 C-145.45768555 105.7993457 -145.87630859 106.36041016 -146.30761719 106.93847656 C-150.40919811 112.43297784 -150.40919811 112.43297784 -154.0390625 118.23828125 C-153.7090625 119.22828125 -153.3790625 120.21828125 -153.0390625 121.23828125 C-155.68645166 122.69890975 -156.93354584 123.23828125 -160.0390625 123.23828125 C-160.0390625 123.89828125 -160.0390625 124.55828125 -160.0390625 125.23828125 C-160.6990625 125.23828125 -161.3590625 125.23828125 -162.0390625 125.23828125 C-161.7090625 123.58828125 -161.3790625 121.93828125 -161.0390625 120.23828125 C-161.6990625 120.23828125 -162.3590625 120.23828125 -163.0390625 120.23828125 C-163.0390625 119.57828125 -163.0390625 118.91828125 -163.0390625 118.23828125 C-162.0490625 117.74328125 -162.0490625 117.74328125 -161.0390625 117.23828125 C-160.65772951 115.24687565 -160.32580668 113.24549048 -160.0390625 111.23828125 C-159.5440625 110.24828125 -159.5440625 110.24828125 -159.0390625 109.23828125 C-158.7503125 108.61953125 -158.4615625 108.00078125 -158.1640625 107.36328125 C-157.0390625 105.23828125 -157.0390625 105.23828125 -155.6640625 103.42578125 C-152.90041583 99.70548765 -150.35814038 96.03309433 -149.5390625 91.42578125 C-149.3740625 90.70390625 -149.2090625 89.98203125 -149.0390625 89.23828125 C-147.71438504 88.55457675 -146.38042617 87.88863939 -145.0390625 87.23828125 C-144.74644531 86.50480469 -144.45382813 85.77132812 -144.15234375 85.015625 C-131.3125581 52.9837387 -90.22163838 26.36994208 -59.97802734 13.35107422 C-56.05725507 11.79159449 -52.06084335 10.50781867 -48.0390625 9.23828125 C-46.19136868 8.58360212 -44.34367695 7.92891703 -42.49609375 7.27392578 C-28.7164782 2.46881758 -14.56883525 0.14182612 0 0 Z " fill="#5B5B93" transform="translate(293.0390625,65.76171875)"/>
<path d="M0 0 C1.0543071 0.00140488 1.0543071 0.00140488 2.12991333 0.00283813 C51.47980953 0.14480292 101.751286 15.26022356 141.375 45.1875 C142.28016357 45.86377441 142.28016357 45.86377441 143.20361328 46.55371094 C151.71384513 52.94716158 159.70479579 59.81136113 167.375 67.1875 C167.91543945 67.70602539 168.45587891 68.22455078 169.01269531 68.75878906 C176.34861985 75.83925483 183.10371305 83.1308737 189.375 91.1875 C190.16261719 92.15816406 190.95023437 93.12882812 191.76171875 94.12890625 C197.4007029 101.20198056 202.21697955 108.55606392 206.79638672 116.35961914 C207.2348291 117.10203857 207.67327148 117.84445801 208.125 118.609375 C208.51171875 119.27549805 208.8984375 119.94162109 209.296875 120.62792969 C210.30429135 122.35274248 210.30429135 122.35274248 212.375 123.1875 C212.71131868 124.52008344 213.04374553 125.85364867 213.375 127.1875 C214.46737464 129.46188002 215.58576728 131.70089256 216.75 133.9375 C218.77787196 137.8889475 220.7166948 141.80096547 222.1875 146 C222.99803715 149.28319584 222.99803715 149.28319584 225.375 150.1875 C225.76330401 152.17755807 226.08314937 154.1810269 226.375 156.1875 C226.99567277 158.86745916 227.68612797 161.52386149 228.375 164.1875 C225.5625 163.25 225.5625 163.25 222.375 161.1875 C220.96862918 158.28203062 220.12390884 155.32109225 219.375 152.1875 C218.715 152.1875 218.055 152.1875 217.375 152.1875 C216.941875 150.764375 216.941875 150.764375 216.5 149.3125 C215.60674891 146.13538422 215.60674891 146.13538422 213.375 144.1875 C213.045 143.1975 212.715 142.2075 212.375 141.1875 C210.72103926 139.50822354 209.05253982 137.84322211 207.375 136.1875 C205.92512084 134.31694423 204.50907176 132.4197588 203.125 130.5 C199.45156969 125.52250193 195.55809306 120.90584948 191.36328125 116.36328125 C189.76793179 114.61748626 188.27564268 112.85461898 186.8125 111 C183.62397694 107.32093493 180.12461588 104.2834586 176.375 101.1875 C175.38628906 100.36121094 174.39757812 99.53492187 173.37890625 98.68359375 C148.69266287 78.44021597 119.67122006 65.07263717 88.375 59.1875 C87.4372876 58.99913574 86.4995752 58.81077148 85.53344727 58.61669922 C76.24240616 56.93986307 67.0547087 56.88244658 57.64624023 56.92675781 C54.94557171 56.93746799 52.24557017 56.92681182 49.54492188 56.9140625 C36.42826777 56.90256009 24.01506889 58.04655237 11.25 61.25 C10.53585937 61.42337891 9.82171875 61.59675781 9.0859375 61.77539062 C7.18061948 62.23927869 5.27766814 62.71286032 3.375 63.1875 C2.55257812 63.39246094 1.73015625 63.59742188 0.8828125 63.80859375 C0.38523438 63.93363281 -0.11234375 64.05867188 -0.625 64.1875 C-0.625 63.5275 -0.625 62.8675 -0.625 62.1875 C1.355 61.1975 1.355 61.1975 3.375 60.1875 C-16.92233618 59.97699159 -37.21945 59.81842071 -57.51765251 59.72119045 C-66.94312977 59.67483875 -76.36792765 59.61167837 -85.79296875 59.50854492 C-94.01063094 59.41866629 -102.22780101 59.3607354 -110.44594109 59.34070355 C-114.79522723 59.32899854 -119.14310587 59.30161455 -123.49193954 59.23592949 C-127.59144553 59.17451607 -131.68897423 59.15605844 -135.78889656 59.16953087 C-137.28770918 59.16706898 -138.7865927 59.14935268 -140.28500557 59.11465073 C-147.84311672 58.94830096 -153.41676478 59.23161996 -159.31692505 64.47767639 C-160.7816848 66.02084262 -162.21908332 67.59053995 -163.625 69.1875 C-165.1085743 70.65588904 -166.59956679 72.11686565 -168.1015625 73.56640625 C-169.48700595 74.95832373 -170.86985319 76.35283051 -172.25 77.75 C-172.96800781 78.47251953 -173.68601562 79.19503906 -174.42578125 79.93945312 C-176.16123117 81.68647271 -177.89427075 83.4358059 -179.625 85.1875 C-180.615 84.8575 -181.605 84.5275 -182.625 84.1875 C-163.03225192 62.43492142 -140.8202968 41.24050345 -114.1875 28.3125 C-113.50558594 27.97863281 -112.82367188 27.64476563 -112.12109375 27.30078125 C-109.96080604 26.25205976 -107.79397621 25.21811715 -105.625 24.1875 C-104.9326123 23.85459961 -104.24022461 23.52169922 -103.52685547 23.17871094 C-70.92321181 7.61839955 -36.0670381 -0.06263776 0 0 Z " fill="#049DC3" transform="translate(249.625,9.8125)"/>
<path d="M0 0 C0.99 0.33 1.98 0.66 3 1 C2.09507812 1.99580078 2.09507812 1.99580078 1.171875 3.01171875 C0.37265625 3.89472656 -0.4265625 4.77773438 -1.25 5.6875 C-2.03890625 6.55761719 -2.8278125 7.42773438 -3.640625 8.32421875 C-5.2129607 10.10741404 -6.72511746 11.94552187 -8.171875 13.83203125 C-9.07679688 14.90517578 -9.07679688 14.90517578 -10 16 C-10.66 16 -11.32 16 -12 16 C-12 16.99 -12 17.98 -12 19 C-13.65365406 20.02137457 -15.32376502 21.01612294 -17 22 C-20.10873244 24.75909505 -22.69100682 27.53651022 -25 31 C-26.33023266 31.6728323 -27.66442204 32.33784162 -29 33 C-31.40669108 34.72227619 -33.72438369 36.56115722 -36.0625 38.375 C-68.35604211 63 -68.35604211 63 -77 63 C-77.33 63.66 -77.66 64.32 -78 65 C-79.9859944 65.70729816 -81.9903185 66.36311325 -84 67 C-85.36625292 67.55282106 -86.72659961 68.12037228 -88.08203125 68.69921875 C-109.03165538 77.55735396 -130.48522027 82.93431275 -153 86 C-154.24023926 86.1750708 -155.48047852 86.3501416 -156.75830078 86.53051758 C-161.18113694 87.07538857 -165.56681257 87.19565971 -170.01953125 87.23828125 C-171.2913903 87.25297203 -171.2913903 87.25297203 -172.58894348 87.26795959 C-192.07939342 87.44647755 -210.85652104 87.08628956 -230 83 C-231.03737305 82.78037598 -232.07474609 82.56075195 -233.14355469 82.33447266 C-246.84417681 79.34420712 -260.04339679 75.36135305 -273 70 C-274.22928223 69.49146484 -274.22928223 69.49146484 -275.48339844 68.97265625 C-287.56915917 63.8985883 -298.91221392 57.9828218 -310 51 C-311.06605469 50.33226562 -312.13210938 49.66453125 -313.23046875 48.9765625 C-318.83421756 45.34930105 -324.20542841 41.43575161 -329.5 37.375 C-330.0880542 36.93164307 -330.6761084 36.48828613 -331.28198242 36.03149414 C-335.0710147 33.06509154 -337.52739965 30.13312118 -340 26 C-336.56623732 24.28311866 -332.61885635 24.75490998 -328.8359375 24.68359375 C-327.92872955 24.66281265 -327.02152161 24.64203156 -326.08682251 24.62062073 C-323.1829602 24.55512865 -320.27900595 24.49624186 -317.375 24.4375 C-315.40884458 24.39431445 -313.44269853 24.35070015 -311.4765625 24.30664062 C-306.65113638 24.19944761 -301.8256176 24.09817919 -297 24 C-297.6155777 23.74556122 -298.2311554 23.49112244 -298.86538696 23.22897339 C-300.56179431 22.52779168 -302.25813155 21.82644033 -303.95440674 21.12493896 C-305.74383789 20.38573095 -307.53444377 19.6493652 -309.32568359 18.91455078 C-310.09219238 18.59470215 -310.85870117 18.27485352 -311.6484375 17.9453125 C-312.43395996 17.62062988 -313.21948242 17.29594727 -314.02880859 16.96142578 C-316 16 -316 16 -318 14 C-314.01339582 14.66443403 -310.50032577 15.88030495 -306.75 17.375 C-257.4671207 36.63561016 -206.74252651 34.97071956 -158.32470703 14.04980469 C-150.16637041 10.36561571 -142.39220161 6.04724339 -135 1 C-134.01 1.495 -134.01 1.495 -133 2 C-140.14073782 7.36429081 -147.48535452 11.46734164 -155.5625 15.25 C-156.63435547 15.765625 -157.70621094 16.28125 -158.81054688 16.8125 C-163.3861729 18.98417327 -167.88454712 20.99837919 -172.69737244 22.58319092 C-173.50418929 22.84961773 -174.31100615 23.11604454 -175.142272 23.39054489 C-175.75532224 23.59166508 -176.36837248 23.79278526 -177 24 C-157.26822022 24.2240063 -137.53633429 24.42494736 -117.80404377 24.59840012 C-108.64208181 24.67947484 -99.48030921 24.768108 -90.31860352 24.87451172 C-82.33365139 24.96722951 -74.34870726 25.04578943 -66.36345166 25.10732102 C-62.13491561 25.14039987 -57.90671563 25.18058567 -53.67843056 25.2377243 C-49.69848007 25.29128345 -45.71881349 25.32590767 -41.73855782 25.34602928 C-40.27799933 25.35674761 -38.81747265 25.3743773 -37.35709 25.39944649 C-35.36221023 25.43265471 -33.36693142 25.43853037 -31.3717804 25.4430542 C-29.69734344 25.45964647 -29.69734344 25.45964647 -27.98907948 25.47657394 C-24.30261187 24.88880958 -22.65368035 23.57158493 -20 21 C-19.67 20.34 -19.34 19.68 -19 19 C-18.34 19 -17.68 19 -17 19 C-17 18.34 -17 17.68 -17 17 C-15.56378057 15.76418328 -14.12169464 14.53423012 -12.64453125 13.34765625 C-7.87176941 9.43648562 -3.9498092 4.70990993 0 0 Z " fill="#059DC3" transform="translate(432,404)"/>
<path d="M0 0 C11.90746162 -0.57008237 11.90746162 -0.57008237 16.13671875 2.875 C17.42862269 4.33579964 18.69508315 5.81914965 19.94921875 7.3125 C21.09983526 8.46277119 22.26255814 9.60099198 23.43359375 10.73046875 C30.81576779 17.86003142 37.66733988 25.18232157 43.94921875 33.3125 C44.73425781 34.28058594 45.51929688 35.24867187 46.328125 36.24609375 C51.98908198 43.29583951 56.79422024 50.68621347 61.37060547 58.48461914 C61.80904785 59.22703857 62.24749023 59.96945801 62.69921875 60.734375 C63.0859375 61.40049805 63.47265625 62.06662109 63.87109375 62.75292969 C64.8785101 64.47774248 64.8785101 64.47774248 66.94921875 65.3125 C67.28553743 66.64508344 67.61796428 67.97864867 67.94921875 69.3125 C69.04159339 71.58688002 70.15998603 73.82589256 71.32421875 76.0625 C73.35209071 80.0139475 75.29091355 83.92596547 76.76171875 88.125 C77.5722559 91.40819584 77.5722559 91.40819584 79.94921875 92.3125 C80.33752276 94.30255807 80.65736812 96.3060269 80.94921875 98.3125 C81.56989152 100.99245916 82.26034672 103.64886149 82.94921875 106.3125 C80.13671875 105.375 80.13671875 105.375 76.94921875 103.3125 C75.54284793 100.40703062 74.69812759 97.44609225 73.94921875 94.3125 C73.28921875 94.3125 72.62921875 94.3125 71.94921875 94.3125 C71.66046875 93.36375 71.37171875 92.415 71.07421875 91.4375 C70.18096766 88.26038422 70.18096766 88.26038422 67.94921875 86.3125 C67.61921875 85.3225 67.28921875 84.3325 66.94921875 83.3125 C65.29525801 81.63322354 63.62675857 79.96822211 61.94921875 78.3125 C60.49933959 76.44194423 59.08329051 74.5447588 57.69921875 72.625 C54.02578844 67.64750193 50.13231181 63.03084948 45.9375 58.48828125 C44.34215054 56.74248626 42.84986143 54.97961898 41.38671875 53.125 C38.19819569 49.44593493 34.69883463 46.4084586 30.94921875 43.3125 C29.46615234 42.07306641 29.46615234 42.07306641 27.953125 40.80859375 C11.62406327 27.41832775 -6.88604054 17.18892548 -26.48828125 9.4375 C-27.57012695 9.00775879 -27.57012695 9.00775879 -28.67382812 8.56933594 C-33.71418196 6.64268735 -38.75876535 5.3521553 -44.05078125 4.3125 C-43.06078125 3.9825 -42.07078125 3.6525 -41.05078125 3.3125 C-41.05078125 2.6525 -41.05078125 1.9925 -41.05078125 1.3125 C-38.70965016 1.23908338 -36.36850609 1.16616 -34.02734375 1.09375 C-32.93403999 1.05991211 -32.93403999 1.05991211 -31.81864929 1.02539062 C-25.41984711 0.82992834 -19.02045403 0.66366183 -12.62071228 0.50231934 C-8.40924703 0.39162484 -4.20689038 0.23259787 0 0 Z " fill="#448DB4" transform="translate(395.05078125,67.6875)"/>
<path d="M0 0 C1.485 0.99 1.485 0.99 3 2 C3.69351562 2.12117188 4.38703125 2.24234375 5.1015625 2.3671875 C6.04128906 2.68042969 6.04128906 2.68042969 7 3 C7.8359375 4.8203125 7.8359375 4.8203125 8.375 7.125 C9.63532108 11.434485 11.31161532 13.84166083 14.34765625 17.078125 C16.25327586 19.29459036 17.67906464 21.62179311 19.1875 24.125 C23.09050772 30.39554647 27.69491173 35.86570727 32.57373047 41.38574219 C33.50226236 42.43665846 34.42603516 43.49180521 35.34423828 44.55175781 C50.64379693 62.20727818 69.99415232 76.73256773 91 87 C91 87.66 91 88.32 91 89 C92.24330078 89.4021875 92.24330078 89.4021875 93.51171875 89.8125 C97.32262398 91.10982944 101.0680248 92.5241288 104.8125 94 C105.49248047 94.26039063 106.17246094 94.52078125 106.87304688 94.7890625 C111.88366654 96.76733307 111.88366654 96.76733307 113 99 C99.14 99.33 85.28 99.66 71 100 C70.8509288 102.0745356 70.8509288 102.0745356 72 104 C69.50638429 102.79618552 67.31856917 101.54571278 65 100 C64.34 100 63.68 100 63 100 C62.938125 99.401875 62.87625 98.80375 62.8125 98.1875 C61.68390926 95.14898647 59.7237223 94.60629777 57 93 C57 92.01 57 91.02 57 90 C56.01 89.67 55.02 89.34 54 89 C52.5625 87.609375 52.5625 87.609375 51 85.75 C50.39285156 85.03328125 49.78570312 84.3165625 49.16015625 83.578125 C48.44730469 82.72734375 47.73445313 81.8765625 47 81 C46.10389321 79.95224437 45.2066934 78.90542292 44.30859375 77.859375 C39.74055948 72.52335415 35.23458109 67.18857379 31.12109375 61.48828125 C29.93595758 59.84306046 29.93595758 59.84306046 28 58 C26.96838392 56.01612292 25.96476382 54.01723344 25 52 C24.34 52 23.68 52 23 52 C22.82791016 51.14148438 22.82791016 51.14148438 22.65234375 50.265625 C21.93817644 47.78528344 20.92692128 45.93631303 19.5625 43.75 C19.13066406 43.04359375 18.69882812 42.3371875 18.25390625 41.609375 C17.84011719 41.07828125 17.42632812 40.5471875 17 40 C16.34 40 15.68 40 15 40 C15.33 39.01 15.66 38.02 16 37 C14.7260411 34.96166576 13.38938077 32.96147874 12 31 C11.67 30.01 11.34 29.02 11 28 C10.45050817 26.72348821 9.88612617 25.45335016 9.3125 24.1875 C7.46381223 20.04834245 5.62438908 15.90540375 3.8125 11.75 C3.30332031 10.58984375 2.79414063 9.4296875 2.26953125 8.234375 C1.17616699 5.44881929 0.45949513 2.94519768 0 0 Z " fill="#498EB4" transform="translate(23,330)"/>
<path d="M0 0 C3.98660418 0.66443403 7.49967423 1.88030495 11.25 3.375 C21.01836375 7.1926472 30.90629211 10.1714645 41 13 C40.67 13.99 40.34 14.98 40 16 C32.65454046 16.069608 25.30915241 16.12286584 17.96342945 16.15543652 C14.55224239 16.17107139 11.14128151 16.19226914 7.73022461 16.22631836 C3.80585466 16.26524491 -0.11842471 16.2797273 -4.04296875 16.29296875 C-5.26396774 16.30845261 -6.48496674 16.32393646 -7.7429657 16.33988953 C-8.8837709 16.34011612 -10.02457611 16.34034271 -11.19995117 16.34057617 C-12.20144699 16.34723801 -13.20294281 16.35389984 -14.23478699 16.36076355 C-17.44843107 15.94149543 -19.35647624 14.82878182 -22 13 C-19.65199864 10.65199864 -19.19115983 10.7397146 -16.00927734 10.68115234 C-15.18857758 10.66128265 -14.36787781 10.64141296 -13.52230835 10.62094116 C-12.63580597 10.60938995 -11.74930359 10.59783875 -10.8359375 10.5859375 C-9.92872955 10.56657135 -9.02152161 10.5472052 -8.08682251 10.5272522 C-5.18297796 10.46736784 -2.27909396 10.42103584 0.625 10.375 C2.59116333 10.33682835 4.5573098 10.29777711 6.5234375 10.2578125 C11.3488217 10.16165909 16.17428418 10.077661 21 10 C20.07663345 9.61834183 20.07663345 9.61834183 19.13461304 9.22897339 C17.43820569 8.52779168 15.74186845 7.82644033 14.04559326 7.12493896 C12.25616211 6.38573095 10.46555623 5.6493652 8.67431641 4.91455078 C7.52455322 4.43477783 7.52455322 4.43477783 6.3515625 3.9453125 C5.56604004 3.62062988 4.78051758 3.29594727 3.97119141 2.96142578 C2 2 2 2 0 0 Z " fill="#1C94BB" transform="translate(114,418)"/>
<path d="M0 0 C2.0625 0.4375 2.0625 0.4375 4 1 C0.80185964 4.47226667 -1.64366968 6.30587154 -6 8 C-6.33 8.99 -6.66 9.98 -7 11 C-8.53125 12.51000977 -8.53125 12.51000977 -10.5 14.12890625 C-15.25178455 18.16049845 -19.62052061 22.50868506 -24 26.9375 C-24.77472656 27.71673828 -25.54945312 28.49597656 -26.34765625 29.29882812 C-28.23410757 31.1969242 -30.11816245 33.09733149 -32 35 C-32.99 34.67 -33.98 34.34 -35 34 C-24.31938767 22.14199734 -13.54492586 10.90884388 -1 1 C-0.67 0.67 -0.34 0.34 0 0 Z " fill="#52A7C7" transform="translate(102,60)"/>
<path d="M0 0 C0.66 0.33 1.32 0.66 2 1 C-5.12139658 6.35198813 -12.43698844 10.42964794 -20.5 14.1875 C-21.56347656 14.69474609 -22.62695312 15.20199219 -23.72265625 15.72460938 C-48.19018922 27.29790258 -48.19018922 27.29790258 -61 27 C-57.87566092 25.32328833 -54.75263748 24.20957532 -51.37109375 23.15234375 C-33.93460333 17.59446243 -17.01668341 11.70593999 -1.93359375 1.1171875 C-0.97646484 0.56417969 -0.97646484 0.56417969 0 0 Z " fill="#3792B8" transform="translate(297,405)"/>
<path d="M0 0 C0.99 0.33 1.98 0.66 3 1 C2.39671875 1.66386719 1.7934375 2.32773437 1.171875 3.01171875 C0.37265625 3.89472656 -0.4265625 4.77773438 -1.25 5.6875 C-2.03890625 6.55761719 -2.8278125 7.42773438 -3.640625 8.32421875 C-5.2129607 10.10741404 -6.72511746 11.94552187 -8.171875 13.83203125 C-8.77515625 14.54746094 -9.3784375 15.26289063 -10 16 C-10.66 16 -11.32 16 -12 16 C-12 16.99 -12 17.98 -12 19 C-13.65365406 20.02137457 -15.32376502 21.01612294 -17 22 C-20.10873244 24.75909505 -22.69100682 27.53651022 -25 31 C-27.125 31.6875 -27.125 31.6875 -29 32 C-28.67 30.68 -28.34 29.36 -28 28 C-27.01 28 -26.02 28 -25 28 C-25 27.01 -25 26.02 -25 25 C-23.37064759 23.62131719 -21.70250393 22.28725907 -20 21 C-19.67 20.34 -19.34 19.68 -19 19 C-18.34 19 -17.68 19 -17 19 C-17 18.34 -17 17.68 -17 17 C-15.56378057 15.76418328 -14.12169464 14.53423012 -12.64453125 13.34765625 C-7.87176941 9.43648562 -3.9498092 4.70990993 0 0 Z " fill="#65B0CC" transform="translate(432,404)"/>
<path d="M0 0 C0.33 0.99 0.66 1.98 1 3 C0.67 3.66 0.34 4.32 0 5 C0.66 5 1.32 5 2 5 C2 4.34 2 3.68 2 3 C2.66 3 3.32 3 4 3 C2.44620954 7.87325191 0.79455052 12.70993055 -1 17.5 C-1.309375 18.3353125 -1.61875 19.170625 -1.9375 20.03125 C-3 22 -3 22 -6 23 C-4.92380059 14.88602288 -3.07677695 7.58739171 0 0 Z " fill="#7A679B" transform="translate(131,186)"/>
<path d="M0 0 C0.66 0.33 1.32 0.66 2 1 C-6.91 9.91 -15.82 18.82 -25 28 C-25 24.5112936 -24.61199452 24.20928758 -22.32421875 21.77734375 C-21.74816895 21.16060791 -21.17211914 20.54387207 -20.57861328 19.90844727 C-19.64251221 18.93282837 -19.64251221 18.93282837 -18.6875 17.9375 C-17.74366455 16.93964478 -17.74366455 16.93964478 -16.78076172 15.92163086 C-11.43376251 10.32544717 -5.84628785 5.07075987 0 0 Z " fill="#5A397F" transform="translate(187,107)"/>
<path d="M0 0 C0.66 0.66 1.32 1.32 2 2 C2.66 1.67 3.32 1.34 4 1 C3.55005243 2.79379098 3.08975857 4.58498928 2.625 6.375 C2.36976563 7.37273437 2.11453125 8.37046875 1.8515625 9.3984375 C1 12 1 12 -1 14 C-1.99 14 -2.98 14 -4 14 C-4.33 11.69 -4.66 9.38 -5 7 C-4.34 7 -3.68 7 -3 7 C-3 6.34 -3 5.68 -3 5 C-2.34 5 -1.68 5 -1 5 C-0.67 3.35 -0.34 1.7 0 0 Z " fill="#7A679B" transform="translate(369,301)"/>
<path d="M0 0 C-1.65863505 4.32504836 -4.871041 7.09418825 -8.125 10.25 C-8.68832031 10.80429688 -9.25164062 11.35859375 -9.83203125 11.9296875 C-11.21686028 13.29104485 -12.60783204 14.64614859 -14 16 C-14.99 15.67 -15.98 15.34 -17 15 C-15.23000902 13.06172464 -13.45904239 11.12435656 -11.6875 9.1875 C-11.18798828 8.64029297 -10.68847656 8.09308594 -10.17382812 7.52929688 C-8.78777469 6.01473517 -7.39413878 4.50712253 -6 3 C-5.44957031 2.37738281 -4.89914063 1.75476563 -4.33203125 1.11328125 C-3 0 -3 0 0 0 Z " fill="#519DBF" transform="translate(84,79)"/>
<path d="M0 0 C1.26096748 0.00022659 1.26096748 0.00022659 2.54740906 0.00045776 C3.90223137 0.01594162 3.90223137 0.01594162 5.28442383 0.03173828 C6.67640739 0.03598312 6.67640739 0.03598312 8.09651184 0.04031372 C11.06162386 0.05151242 14.02643429 0.07661644 16.99145508 0.10205078 C19.00121634 0.11208098 21.01098234 0.12120676 23.02075195 0.12939453 C27.94860261 0.15145074 32.8762277 0.18597849 37.80395508 0.22705078 C37.80395508 0.55705078 37.80395508 0.88705078 37.80395508 1.22705078 C26.25395508 1.22705078 14.70395508 1.22705078 2.80395508 1.22705078 C2.80395508 1.88705078 2.80395508 2.54705078 2.80395508 3.22705078 C-0.49604492 2.89705078 -3.79604492 2.56705078 -7.19604492 2.22705078 C-4.10548537 0.16667775 -3.4867833 -0.02094164 0 0 Z " fill="#1296BC" transform="translate(351.196044921875,67.77294921875)"/>
<path d="M0 0 C-19.18029474 8.25162105 -19.18029474 8.25162105 -30 8 C-25.21678665 5.47174991 -20.13490443 3.96774374 -15 2.3125 C-14.00226563 1.97927734 -13.00453125 1.64605469 -11.9765625 1.30273438 C-11.01492187 0.99271484 -10.05328125 0.68269531 -9.0625 0.36328125 C-8.18722656 0.07751221 -7.31195313 -0.20825684 -6.41015625 -0.50268555 C-3.86097471 -1.02868664 -2.43255759 -0.84553952 0 0 Z " fill="#298EB6" transform="translate(266,424)"/>
<path d="M0 0 C1 1.33333333 2 2.66666667 3 4 C3.86625 4.928125 3.86625 4.928125 4.75 5.875 C6.49975546 8.84958428 5.81362092 10.74551631 5 14 C5.66 13.67 6.32 13.34 7 13 C7.625 15.3125 7.625 15.3125 8 18 C7.34 18.99 6.68 19.98 6 21 C5.34 21 4.68 21 4 21 C3.896875 20.21625 3.79375 19.4325 3.6875 18.625 C2.95720051 14.77432996 1.84823473 11.18149561 0.62109375 7.46484375 C-0.02971048 4.88209238 -0.10873655 2.65222618 0 0 Z " fill="#A7AEC8" transform="translate(17,309)"/>
<path d="M0 0 C2 3 2 3 2 5 C2.66 5 3.32 5 4 5 C3.67 5.99 3.34 6.98 3 8 C3.59656189 10.70747319 4.25092915 13.33558343 5 16 C7.13513514 23.59459459 7.13513514 23.59459459 6 27 C4.29728719 24.2756595 3.81027741 21.95476399 3.5 18.8125 C3.335 17.554375 3.17 16.29625 3 15 C2.34 14.67 1.68 14.34 1 14 C1.33 13.01 1.66 12.02 2 11 C1.34 11 0.68 11 0 11 C0 7.37 0 3.74 0 0 Z " fill="#A99EBE" transform="translate(120,267)"/>
<path d="M0 0 C4.56553686 4.56553686 5.77925699 13.1136179 6.2578125 19.37109375 C6.2511648 21.92713311 6.18725219 24.45128961 6 27 C4.43394304 24.13217356 3.56008358 21.54128599 2.9296875 18.33984375 C2.75566406 17.46392578 2.58164062 16.58800781 2.40234375 15.68554688 C2.22832031 14.77869141 2.05429687 13.87183594 1.875 12.9375 C1.69324219 12.02677734 1.51148438 11.11605469 1.32421875 10.17773438 C0 3.42222744 0 3.42222744 0 0 Z " fill="#8879A6" transform="translate(373,204)"/>
<path d="M0 0 C2.28363378 2.28363378 2.7152849 3.74795468 3.625 6.8125 C3.88539063 7.66457031 4.14578125 8.51664063 4.4140625 9.39453125 C5.0044509 12.01979166 5.10588413 14.31920637 5 17 C4.01 17 3.02 17 2 17 C-0.81115003 10.81546992 -1.27947184 6.65941972 0 0 Z " fill="#8D93B6" transform="translate(478,175)"/>
<path d="M0 0 C0.99 0.33 1.98 0.66 3 1 C-6.22551253 11.74259681 -6.22551253 11.74259681 -12 15 C-10.76566848 10.33696981 -8.29364754 8.3332377 -4.6875 5.42578125 C-2.78302348 3.81667493 -1.36301274 2.08460772 0 0 Z " fill="#4798BB" transform="translate(432,404)"/>
<path d="M0 0 C0.69867188 0.2165625 1.39734375 0.433125 2.1171875 0.65625 C3.02726562 0.9346875 3.93734375 1.213125 4.875 1.5 C5.77992188 1.7784375 6.68484375 2.056875 7.6171875 2.34375 C9.90944647 3.08850794 9.90944647 3.08850794 12 3 C12 3.66 12 4.32 12 5 C13.11375 5.28875 14.2275 5.5775 15.375 5.875 C19 7 19 7 21 9 C15.86243532 8.35983027 11.41209819 6.80299667 6.625 4.9375 C5.88894531 4.65583984 5.15289062 4.37417969 4.39453125 4.08398438 C2.5944264 3.39433382 0.7969379 2.69786068 -1 2 C-0.67 1.34 -0.34 0.68 0 0 Z " fill="#2793B9" transform="translate(358,71)"/>
<path d="M0 0 C1 3 1 3 1 5 C0.11054688 5.36738281 0.11054688 5.36738281 -0.796875 5.7421875 C-3.36698726 7.20952109 -4.54529966 8.72292225 -6.25 11.125 C-6.77078125 11.84945313 -7.2915625 12.57390625 -7.828125 13.3203125 C-8.21484375 13.87460937 -8.6015625 14.42890625 -9 15 C-9.33 14.01 -9.66 13.02 -10 12 C-8.671875 9.84375 -8.671875 9.84375 -6.75 7.5 C-6.12609375 6.7265625 -5.5021875 5.953125 -4.859375 5.15625 C-3.30253752 3.35084183 -1.71600221 1.65244658 0 0 Z " fill="#86ACC7" transform="translate(448,385)"/>
<path d="M0 0 C0.33 0.66 0.66 1.32 1 2 C-0.109375 4.86328125 -0.109375 4.86328125 -1.75 8.3125 C-2.54664063 10.00826172 -2.54664063 10.00826172 -3.359375 11.73828125 C-4.79112323 14.58473308 -6.31637158 17.29706641 -8 20 C-8.6875 18.1875 -8.6875 18.1875 -9 16 C-8.02246356 14.97803008 -7.0194119 13.98020375 -6 13 C-5.27802838 10.39388923 -5.27802838 10.39388923 -5 8 C-4.34 8 -3.68 8 -3 8 C-3.061875 7.236875 -3.12375 6.47375 -3.1875 5.6875 C-3 3 -3 3 -1.5 1.1875 C-1.005 0.795625 -0.51 0.40375 0 0 Z " fill="#98AAC5" transform="translate(470,345)"/>
<path d="M0 0 C2.4375 0.75 2.4375 0.75 5 2 C5.625 3.75 5.625 3.75 6 6 C6.53625 7.03125 7.0725 8.0625 7.625 9.125 C8.07875 10.07375 8.5325 11.0225 9 12 C8.67 12.66 8.34 13.32 8 14 C5.50447597 11.72402354 3.93377014 9.39278822 2.3125 6.4375 C1.87550781 5.65246094 1.43851562 4.86742187 0.98828125 4.05859375 C0 2 0 2 0 0 Z " fill="#89A1BF" transform="translate(457,131)"/>
<path d="M0 0 C3.73209414 1.24403138 5.30708475 3.17243898 8 6 C8.598125 6.598125 9.19625 7.19625 9.8125 7.8125 C10.204375 8.204375 10.59625 8.59625 11 9 C10.67 9.99 10.34 10.98 10 12 C8.32448647 10.57282151 6.65980691 9.13291518 5 7.6875 C3.6078125 6.48673828 3.6078125 6.48673828 2.1875 5.26171875 C0 3 0 3 0 0 Z " fill="#7B669B" transform="translate(158,343)"/>
<path d="M0 0 C0.33 0.99 0.66 1.98 1 3 C-1.59177765 7.87254198 -4.37911618 10.26947774 -9 13 C-7.50923566 9.7173068 -5.61379679 7.06922559 -3.375 4.25 C-2.74335937 3.45078125 -2.11171875 2.6515625 -1.4609375 1.828125 C-0.97882813 1.22484375 -0.49671875 0.6215625 0 0 Z " fill="#74A5C3" transform="translate(66,95)"/>
<path d="M0 0 C10.55808656 -0.3690205 10.55808656 -0.3690205 15 2 C14.67 2.66 14.34 3.32 14 4 C9.38 3.01 4.76 2.02 0 1 C0 0.67 0 0.34 0 0 Z " fill="#6A518E" transform="translate(213,377)"/>
<path d="M0 0 C0 0.33 0 0.66 0 1 C-5.61 2.32 -11.22 3.64 -17 5 C-17 4.34 -17 3.68 -17 3 C-11.42531458 -0.61601216 -6.39432346 -0.30720059 0 0 Z " fill="#1997BC" transform="translate(266,69)"/>
<path d="M0 0 C0.66 0 1.32 0 2 0 C0.68938409 4.23429756 -0.94356259 8.07407404 -3 12 C-3.66 12 -4.32 12 -5 12 C-3.86726461 7.55619192 -2.71682385 3.73563279 0 0 Z " fill="#96B1CA" transform="translate(455,372)"/>
<path d="M0 0 C1.55693206 2.33539809 2.90200646 4.57968756 4.1875 7.0625 C4.55230469 7.75472656 4.91710937 8.44695312 5.29296875 9.16015625 C5.52628906 9.76730469 5.75960937 10.37445313 6 11 C5.67 11.66 5.34 12.32 5 13 C2.64829956 10.86209051 1.11208165 8.99406599 0 6 C-0.125 2.75 -0.125 2.75 0 0 Z " fill="#8878A6" transform="translate(129,299)"/>
<path d="M0 0 C1.89213369 2.38573379 3.02391783 4.07175348 4 7 C3.01 7 2.02 7 1 7 C0.67 7.66 0.34 8.32 0 9 C-1.3950848 6.70221327 -2.07438619 5.5207033 -1.6875 2.8125 C-1 1 -1 1 0 0 Z " fill="#5E6E9D" transform="translate(25,325)"/>
<path d="M0 0 C1 1.33333333 2 2.66666667 3 4 C3.5775 4.66 4.155 5.32 4.75 6 C6 8 6 8 5.6875 10.25 C5.460625 10.8275 5.23375 11.405 5 12 C5 11.34 5 10.68 5 10 C4.34 10 3.68 10 3 10 C3 9.34 3 8.68 3 8 C2.34 8 1.68 8 1 8 C0.67 5.36 0.34 2.72 0 0 Z " fill="#8289AF" transform="translate(17,309)"/>
<path d="M0 0 C2.64465038 3.1254959 3.84414715 6.08788267 5 10 C4.34 10.66 3.68 11.32 3 12 C0.58314288 7.77050005 -0.34833144 4.87664009 0 0 Z " fill="#8091B4" transform="translate(27,337)"/>
<path d="M0 0 C0.66 0.33 1.32 0.66 2 1 C1.67 3.64 1.34 6.28 1 9 C0.01 9.33 -0.98 9.66 -2 10 C-1.34 6.7 -0.68 3.4 0 0 Z " fill="#715E95" transform="translate(127,199)"/>
<path d="M0 0 C0.75 1.625 0.75 1.625 1 4 C-0.75 7.25 -0.75 7.25 -3 10 C-3.99 10 -4.98 10 -6 10 C-4.34832443 6.4213696 -2.21713508 3.25179812 0 0 Z " fill="#81A5C2" transform="translate(53,112)"/>
<path d="M0 0 C-5.5522888 2.8352113 -9.80112515 3.37952295 -16 3 C-13.37109503 1.60926232 -10.87877953 0.56030796 -8 -0.1875 C-7.34 -0.36667969 -6.68 -0.54585937 -6 -0.73046875 C-3.73459024 -1.03576811 -2.164908 -0.68136613 0 0 Z " fill="#45B9D8" transform="translate(202,16)"/>
<path d="M0 0 C2 3 2 3 2 5 C2.66 5 3.32 5 4 5 C4 5.66 4 6.32 4 7 C3.34 7 2.68 7 2 7 C2 8.32 2 9.64 2 11 C1.34 11 0.68 11 0 11 C0 7.37 0 3.74 0 0 Z " fill="#9489B0" transform="translate(120,267)"/>
<path d="M0 0 C1.5625 1.625 1.5625 1.625 3 4 C2.6875 7.25 2.6875 7.25 2 10 C-0.15377564 7.37801226 -1.40072174 5.35595828 -2 2 C-1.34 2 -0.68 2 0 2 C0 1.34 0 0.68 0 0 Z " fill="#61719F" transform="translate(475,170)"/>
<path d="M0 0 C3 1 3 1 4.6875 4.0625 C5.120625 5.031875 5.55375 6.00125 6 7 C5.01 7.99 4.02 8.98 3 10 C2.87625 9.46375 2.7525 8.9275 2.625 8.375 C1.87793984 5.5361714 0.94696636 2.77776798 0 0 Z " fill="#8CA9C5" transform="translate(43,372)"/>
<path d="M0 0 C0.33 0 0.66 0 1 0 C0.88570603 1.77155654 0.75816963 3.54226229 0.625 5.3125 C0.52058594 6.79169922 0.52058594 6.79169922 0.4140625 8.30078125 C0 11 0 11 -2 14 C-2 10.04 -2 6.08 -2 2 C-1.34 2 -0.68 2 0 2 C0 1.34 0 0.68 0 0 Z " fill="#A198BA" transform="translate(122,222)"/>
<path d="M0 0 C4.95696581 1.23924145 7.11658466 2.78577758 10 7 C6.433255 7 5.89456323 6.36308045 3.3125 4.0625 C2.68988281 3.51722656 2.06726563 2.97195312 1.42578125 2.41015625 C0.95527344 1.94480469 0.48476563 1.47945312 0 1 C0 0.67 0 0.34 0 0 Z " fill="#7A649A" transform="translate(336,153)"/>
<path d="M0 0 C-1.77444972 2.24606427 -2.58352485 2.95081002 -5.48046875 3.29296875 C-6.37378906 3.25816406 -7.26710937 3.22335937 -8.1875 3.1875 C-9.08855469 3.16042969 -9.98960937 3.13335937 -10.91796875 3.10546875 C-11.94857422 3.05326172 -11.94857422 3.05326172 -13 3 C-8.49192825 0.69441653 -5.09714099 -0.14158725 0 0 Z " fill="#1A95BB" transform="translate(249,429)"/>
<path d="M0 0 C0.66 0.33 1.32 0.66 2 1 C2.625 3.5625 2.625 3.5625 3 6 C1.35 6.66 -0.3 7.32 -2 8 C-1.125 2.25 -1.125 2.25 0 0 Z " fill="#9AB0C9" transform="translate(459,364)"/>
<path d="M0 0 C1 3 1 3 0.00390625 5.04296875 C-0.47175781 5.75066406 -0.94742188 6.45835937 -1.4375 7.1875 C-1.91058594 7.90292969 -2.38367188 8.61835938 -2.87109375 9.35546875 C-3.24363281 9.89816406 -3.61617187 10.44085938 -4 11 C-4.65234375 9.234375 -4.65234375 9.234375 -5 7 C-4.00390625 5.078125 -4.00390625 5.078125 -2.5625 3.25 C-2.08941406 2.63640625 -1.61632812 2.0228125 -1.12890625 1.390625 C-0.75636719 0.93171875 -0.38382813 0.4728125 0 0 Z " fill="#7D6A9D" transform="translate(143,173)"/>
<path d="M0 0 C2.0625 2.25 2.0625 2.25 4 5 C3.75 7.3125 3.75 7.3125 3 9 C0.52121318 6.8445332 -0.57563804 5.28880515 -1 2 C-0.67 1.34 -0.34 0.68 0 0 Z " fill="#92A3C1" transform="translate(466,145)"/>
<path d="M0 0 C2.31 1.98 4.62 3.96 7 6 C6.34 6.66 5.68 7.32 5 8 C2.5 5.6875 2.5 5.6875 0 3 C0 2.01 0 1.02 0 0 Z " fill="#4D9FC1" transform="translate(417,78)"/>
<path d="M0 0 C2.125 0.375 2.125 0.375 4 1 C2.37660195 2.70884005 0.70680947 4.37446717 -1 6 C-1.66 6 -2.32 6 -3 6 C-2.42655063 3.13275314 -2.1385485 2.1385485 0 0 Z " fill="#35A3C5" transform="translate(102,60)"/>
<path d="M0 0 C2.64752004 2.57784846 4.94432065 4.91648098 7 8 C3.76912579 7.44295272 1.97638863 6.66812465 0 4 C0 2.68 0 1.36 0 0 Z " fill="#7E689D" transform="translate(151,335)"/>
<path d="M0 0 C6.52307692 0.61538462 6.52307692 0.61538462 8.9375 2.5625 C9.288125 3.036875 9.63875 3.51125 10 4 C9.01 4.495 9.01 4.495 8 5 C6.0546875 4.22265625 6.0546875 4.22265625 3.875 3.0625 C3.15054687 2.68222656 2.42609375 2.30195313 1.6796875 1.91015625 C1.12539063 1.60980469 0.57109375 1.30945313 0 1 C0 0.67 0 0.34 0 0 Z " fill="#826D9F" transform="translate(302,131)"/>
<path d="M0 0 C1.43655854 -0.08131463 2.8744483 -0.13933559 4.3125 -0.1875 C5.51326172 -0.23970703 5.51326172 -0.23970703 6.73828125 -0.29296875 C9.47851584 0.06198392 10.29171079 0.89366282 12 3 C3.96428571 2.19642857 3.96428571 2.19642857 0 0 Z " fill="#43B9D7" transform="translate(185,482)"/>
<path d="M0 0 C-1.66666667 1.66666667 -3.33333333 3.33333333 -5 5 C-5.99 4.67 -6.98 4.34 -8 4 C-7 1 -7 1 -4.5625 -0.25 C-2 -1 -2 -1 0 0 Z " fill="#9684AE" transform="translate(324,359)"/>
<path d="M0 0 C4.21912747 0.4794463 6.79663178 1.16625119 10 4 C4.25 4.125 4.25 4.125 2 3 C2 2.34 2 1.68 2 1 C1.34 0.67 0.68 0.34 0 0 Z " fill="#6A508E" transform="translate(295,127)"/>
<path d="M0 0 C2.4375 0.75 2.4375 0.75 5 2 C5.8125 4.125 5.8125 4.125 6 6 C5.01 6 4.02 6 3 6 C3 5.01 3 4.02 3 3 C2.01 2.67 1.02 2.34 0 2 C0 1.34 0 0.68 0 0 Z " fill="#7EB9D1" transform="translate(77,417)"/>
<path d="M0 0 C0.99 0.33 1.98 0.66 3 1 C1.35 2.98 -0.3 4.96 -2 7 C-2.33 6.01 -2.66 5.02 -3 4 C-1.5625 1.8125 -1.5625 1.8125 0 0 Z " fill="#78ACC9" transform="translate(432,404)"/>
<path d="M0 0 C0.99 0.33 1.98 0.66 3 1 C2.67 4.3 2.34 7.6 2 11 C1.67 11 1.34 11 1 11 C1 8.36 1 5.72 1 3 C0.34 3 -0.32 3 -1 3 C-0.67 2.01 -0.34 1.02 0 0 Z " fill="#D3D1DF" transform="translate(12,200)"/>
<path d="M0 0 C0.66 0 1.32 0 2 0 C1.67 1.32 1.34 2.64 1 4 C0.67 2.68 0.34 1.36 0 0 Z " fill="#FFFCF7" transform="translate(43,120)"/>
<path d="M0 0 C0.66 0 1.32 0 2 0 C2 0.66 2 1.32 2 2 C1.34 2 0.68 2 0 2 C0 1.34 0 0.68 0 0 Z " fill="#FFFDF7" transform="translate(72,417)"/>
<path d="M0 0 C0.66 0 1.32 0 2 0 C2 0.66 2 1.32 2 2 C1.34 2 0.68 2 0 2 C0 1.34 0 0.68 0 0 Z " fill="#F6FAFD" transform="translate(426,416)"/>
<path d="M0 0 C0.66 0 1.32 0 2 0 C2 0.66 2 1.32 2 2 C1.34 2 0.68 2 0 2 C0 1.34 0 0.68 0 0 Z " fill="#FFFEF8" transform="translate(442,396)"/>
<path d="M0 0 C0.66 0 1.32 0 2 0 C2 0.66 2 1.32 2 2 C1.34 2 0.68 2 0 2 C0 1.34 0 0.68 0 0 Z " fill="#FDFEF8" transform="translate(471,350)"/>
<path d="M0 0 C0.66 0 1.32 0 2 0 C2 0.66 2 1.32 2 2 C1.34 2 0.68 2 0 2 C0 1.34 0 0.68 0 0 Z " fill="#FEFEF9" transform="translate(27,350)"/>
<path d="M0 0 C0.66 0 1.32 0 2 0 C2 0.66 2 1.32 2 2 C1.34 2 0.68 2 0 2 C0 1.34 0 0.68 0 0 Z " fill="#FDFDF8" transform="translate(163,344)"/>
<path d="M0 0 C0.66 0 1.32 0 2 0 C2 0.66 2 1.32 2 2 C1.34 2 0.68 2 0 2 C0 1.34 0 0.68 0 0 Z " fill="#FDFEFA" transform="translate(481,178)"/>
<path d="M0 0 C0.66 0 1.32 0 2 0 C2 0.66 2 1.32 2 2 C1.34 2 0.68 2 0 2 C0 1.34 0 0.68 0 0 Z " fill="#FEFEFD" transform="translate(312,138)"/>
<path d="M0 0 C0.66 0 1.32 0 2 0 C2 0.66 2 1.32 2 2 C1.34 2 0.68 2 0 2 C0 1.34 0 0.68 0 0 Z " fill="#FFFBF6" transform="translate(448,110)"/>
<path d="M0 0 C0.66 0 1.32 0 2 0 C2 0.66 2 1.32 2 2 C1.34 2 0.68 2 0 2 C0 1.34 0 0.68 0 0 Z " fill="#FDFDF8" transform="translate(439,97)"/>
<path d="M0 0 C0.66 0 1.32 0 2 0 C2 0.66 2 1.32 2 2 C1.34 2 0.68 2 0 2 C0 1.34 0 0.68 0 0 Z " fill="#FDFDF8" transform="translate(60,97)"/>
<path d="M0 0 C0.99 0.495 0.99 0.495 2 1 C1.67 1.66 1.34 2.32 1 3 C0.67 2.01 0.34 1.02 0 0 Z " fill="#FEFEFB" transform="translate(423,81)"/>
<path d="M0 0 C0.33 0.66 0.66 1.32 1 2 C0.34 1.67 -0.32 1.34 -1 1 C-0.67 0.67 -0.34 0.34 0 0 Z " fill="#FFFFFA" transform="translate(379,454)"/>
<path d="M0 0 C0.33 0.66 0.66 1.32 1 2 C0.34 1.67 -0.32 1.34 -1 1 C-0.67 0.67 -0.34 0.34 0 0 Z " fill="#FBFDFA" transform="translate(383,452)"/>
<path d="M0 0 C0.66 0.66 1.32 1.32 2 2 C1.34 2 0.68 2 0 2 C0 1.34 0 0.68 0 0 Z " fill="#FFFFFB" transform="translate(357,179)"/>
<path d="M0 0 C2 1 2 1 2 1 Z " fill="#FFFFFE" transform="translate(271,376)"/>
<path d="" fill="#FEFEF9" transform="translate(0,0)"/>
<path d="M0 0 C2 1 2 1 2 1 Z " fill="#F9F9F8" transform="translate(240,122)"/>
<path d="" fill="#FFFFFF" transform="translate(0,0)"/>
<path d="" fill="#FFFFF9" transform="translate(0,0)"/>
<path d="" fill="#FFFFFB" transform="translate(0,0)"/>
<path d="" fill="#FBFFFD" transform="translate(0,0)"/>
<path d="" fill="#FDFEFC" transform="translate(0,0)"/>
<path d="" fill="#FFFFF9" transform="translate(0,0)"/>
</svg>
